<svg xmlns="http://www.w3.org/2000/svg" viewBox="0 0 2011 103" preserveAspectRatio="xMidYMax slice">
  <path class="st0"
    d="M0,103V0c0,0.9,0.2,2.2,0.6,3.7c0.8,2.4,2,3.9,3.1,5.2c1.2,1.5,2.4,2.5,3.7,3.6c0.4,0.4,1.5,1.3,3,2.3
  c1.2,0.8,2.1,1.4,3.2,2.1c1.1,0.7,2.5,1.5,4.3,2.5c1.5,0.8,3.6,1.9,6.2,3.1c2.7,1.3,5.5,2.5,8.6,3.6c14,5.3,26.9,8.9,26.9,8.9
  c15.7,4.4,28.5,7.2,34.3,8.4c24.7,5.3,43.9,8.6,47.8,9.3c34.2,5.8,62.3,9.5,79.2,11.6c30.8,3.9,60.3,7.2,93.9,10.4
  c14.9,1.4,61.3,5.9,127.9,10.5c80.7,5.7,142.9,8.3,184.7,10.1c15.2,0.6,51.3,2.1,99.2,3.5c138.4,4.1,251,4,278.7,4
  c0,0,625.5-0.7,900.8-57.2c4.3-0.9,8.7-1.8,8.7-1.8c9.8-2.1,17.4-4,20.9-4.9c6-1.5,10.8-2.7,17.1-4.5c7.6-2.2,15.5-5.3,26.2-8.7
  c0,0,6.8-2.6,18.8-9.3c0.6-0.3,4.4-2.5,8.2-6.4c2.3-2.4,3.6-4.3,4.3-6.6c0.5-1.5,0.6-2.7,0.6-3.6c0,34.3,0,68.7,0,103L0,103z" />
</svg>
